<svg xmlns="http://www.w3.org/2000/svg" viewBox="0 0 600 400" fill="none">
  <rect width="600" height="400" rx="16" fill="#F0FDF4"/>
  <!-- Server rack -->
  <rect x="230" y="60" width="140" height="200" rx="10" fill="#E0E7FF" stroke="#6366F1" stroke-width="2"/>
  <rect x="245" y="80" width="110" height="35" rx="5" fill="#6366F1"/>
  <rect x="245" y="125" width="110" height="35" rx="5" fill="#6366F1"/>
  <rect x="245" y="170" width="110" height="35" rx="5" fill="#6366F1"/>
  <!-- LED lights -->
  <circle cx="265" cy="97" r="5" fill="#6EE7B7"/>
  <circle cx="285" cy="97" r="5" fill="#6EE7B7"/>
  <circle cx="265" cy="142" r="5" fill="#6EE7B7"/>
  <circle cx="285" cy="142" r="5" fill="#FCD34D"/>
  <circle cx="265" cy="187" r="5" fill="#6EE7B7"/>
  <circle cx="285" cy="187" r="5" fill="#6EE7B7"/>
  <!-- Connection lines -->
  <line x1="300" y1="260" x2="300" y2="300" stroke="#6366F1" stroke-width="3"/>
  <line x1="200" y1="300" x2="400" y2="300" stroke="#6366F1" stroke-width="3"/>
  <line x1="200" y1="300" x2="200" y2="330" stroke="#6366F1" stroke-width="3"/>
  <line x1="300" y1="300" x2="300" y2="330" stroke="#6366F1" stroke-width="3"/>
  <line x1="400" y1="300" x2="400" y2="330" stroke="#6366F1" stroke-width="3"/>
  <!-- Endpoints -->
  <rect x="170" y="330" width="60" height="30" rx="6" fill="#A5B4FC"/>
  <rect x="270" y="330" width="60" height="30" rx="6" fill="#A5B4FC"/>
  <rect x="370" y="330" width="60" height="30" rx="6" fill="#A5B4FC"/>
  <!-- Cloud -->
  <ellipse cx="300" cy="35" rx="60" ry="20" fill="#C7D2FE"/>
  <line x1="300" y1="55" x2="300" y2="60" stroke="#6366F1" stroke-width="3"/>
</svg>
