<svg xmlns="http://www.w3.org/2000/svg" viewBox="0 0 600 400" fill="none">
  <rect width="600" height="400" rx="16" fill="#F0F4FF"/>
  <rect x="40" y="40" width="520" height="320" rx="12" fill="#fff" stroke="#C7D2FE" stroke-width="2"/>
  <rect x="40" y="40" width="520" height="50" rx="12" fill="#6366F1"/>
  <rect x="40" y="78" width="520" height="12" fill="#6366F1"/>
  <circle cx="70" cy="65" r="8" fill="#FCA5A5"/>
  <circle cx="95" cy="65" r="8" fill="#FCD34D"/>
  <circle cx="120" cy="65" r="8" fill="#6EE7B7"/>
  <rect x="200" y="57" width="200" height="16" rx="8" fill="#E0E7FF"/>
  <rect x="70" y="120" width="200" height="14" rx="4" fill="#6366F1" opacity="0.7"/>
  <rect x="70" y="150" width="300" height="10" rx="4" fill="#C7D2FE"/>
  <rect x="70" y="170" width="260" height="10" rx="4" fill="#C7D2FE"/>
  <rect x="70" y="190" width="280" height="10" rx="4" fill="#C7D2FE"/>
  <rect x="70" y="230" width="120" height="36" rx="8" fill="#6366F1"/>
  <rect x="90" y="240" width="80" height="16" rx="4" fill="#E0E7FF"/>
  <rect x="380" y="110" width="150" height="170" rx="8" fill="#E0E7FF"/>
  <path d="M430 180l25 30h-50l25-30z" fill="#A5B4FC"/>
  <circle cx="470" cy="160" r="15" fill="#C7D2FE"/>
</svg>
