<svg xmlns="http://www.w3.org/2000/svg" viewBox="0 0 600 400" fill="none">
  <rect width="600" height="400" rx="16" fill="#EFF6FF"/>
  <!-- Phone frame -->
  <rect x="220" y="30" width="160" height="300" rx="20" fill="#1E1B4B" stroke="#6366F1" stroke-width="3"/>
  <rect x="232" y="55" width="136" height="245" rx="4" fill="#E0E7FF"/>
  <!-- Screen content -->
  <rect x="232" y="55" width="136" height="40" fill="#6366F1"/>
  <rect x="250" y="67" width="80" height="12" rx="4" fill="#E0E7FF"/>
  <rect x="245" y="110" width="110" height="10" rx="3" fill="#C7D2FE"/>
  <rect x="245" y="130" width="90" height="10" rx="3" fill="#C7D2FE"/>
  <rect x="245" y="155" width="110" height="50" rx="6" fill="#A5B4FC" opacity="0.5"/>
  <rect x="245" y="215" width="50" height="20" rx="6" fill="#6366F1"/>
  <rect x="305" y="215" width="50" height="20" rx="6" fill="#A5B4FC"/>
  <!-- Notch -->
  <rect x="275" y="38" width="50" height="10" rx="5" fill="#312E81"/>
  <!-- Home indicator -->
  <rect x="270" y="310" width="60" height="5" rx="2.5" fill="#312E81"/>
  <!-- Floating elements -->
  <circle cx="140" cy="100" r="30" fill="#E0E7FF" stroke="#C7D2FE" stroke-width="2"/>
  <path d="M130 100l7 7 13-14" stroke="#6366F1" stroke-width="3" stroke-linecap="round" stroke-linejoin="round"/>
  <circle cx="460" cy="280" r="30" fill="#E0E7FF" stroke="#C7D2FE" stroke-width="2"/>
  <path d="M450 275v10m5-5h-10" stroke="#6366F1" stroke-width="3" stroke-linecap="round"/>
</svg>
